<svg width="51" height="29" viewBox="0 0 51 29" fill="none" xmlns="http://www.w3.org/2000/svg">
<path d="M7 13.2699V0.178977H12.4077C13.3878 0.178977 14.2337 0.370739 14.9453 0.754262C15.6612 1.13352 16.2131 1.66406 16.6009 2.34588C16.9886 3.02344 17.1825 3.81179 17.1825 4.71094C17.1825 5.61435 16.9844 6.40483 16.5881 7.08239C16.196 7.75568 15.6357 8.2777 14.907 8.64844C14.1783 9.01918 13.3132 9.20455 12.3118 9.20455H8.97514V6.71165H11.7237C12.201 6.71165 12.5994 6.62855 12.919 6.46236C13.2429 6.29617 13.4879 6.06392 13.6541 5.76562C13.8203 5.46307 13.9034 5.11151 13.9034 4.71094C13.9034 4.30611 13.8203 3.95668 13.6541 3.66264C13.4879 3.36435 13.2429 3.13423 12.919 2.9723C12.5952 2.81037 12.1967 2.7294 11.7237 2.7294H10.1641V13.2699H7Z" fill="white"/>
<path d="M31.705 4.92188H28.509C28.4664 4.59375 28.379 4.29759 28.2469 4.03338C28.1148 3.76918 27.9401 3.54332 27.7228 3.35582C27.5054 3.16832 27.2476 3.02557 26.9493 2.92756C26.6553 2.82528 26.3293 2.77415 25.9713 2.77415C25.3364 2.77415 24.7888 2.92969 24.3286 3.24077C23.8726 3.55185 23.5211 4.00142 23.2739 4.58949C23.031 5.17756 22.9095 5.8892 22.9095 6.72443C22.9095 7.59375 23.0331 8.32244 23.2803 8.91051C23.5317 9.49432 23.8833 9.93537 24.335 10.2337C24.7909 10.5277 25.33 10.6747 25.9522 10.6747C26.3016 10.6747 26.6191 10.63 26.9046 10.5405C27.1943 10.451 27.4479 10.321 27.6652 10.1506C27.8868 9.97585 28.0679 9.76491 28.2086 9.51776C28.3534 9.26634 28.4536 8.98295 28.509 8.66761L31.705 8.68679C31.6496 9.26634 31.4813 9.83736 31.2 10.3999C30.923 10.9624 30.5416 11.4759 30.0559 11.9403C29.5701 12.4006 28.9777 12.767 28.2789 13.0398C27.5843 13.3125 26.7874 13.4489 25.8882 13.4489C24.7036 13.4489 23.6425 13.1889 22.705 12.669C21.7718 12.1449 21.0345 11.3821 20.4934 10.3807C19.9522 9.37926 19.6816 8.16051 19.6816 6.72443C19.6816 5.28409 19.9564 4.06321 20.5061 3.06179C21.0559 2.06037 21.7995 1.29972 22.737 0.77983C23.6745 0.259943 24.7249 0 25.8882 0C26.6809 0 27.4138 0.110796 28.0871 0.332387C28.7604 0.549716 29.3527 0.869318 29.8641 1.29119C30.3755 1.70881 30.7909 2.2223 31.1105 2.83168C31.4301 3.44105 31.6283 4.13778 31.705 4.92188Z" fill="white"/>
<path d="M34.1673 2.74858V0.178977H45.2319V2.74858H41.2625V13.2699H38.1431V2.74858H34.1673Z" fill="white"/>
<path d="M7 16H10.1775V21H7V16Z" fill="white"/>
<path d="M17.375 16H20.5525V21H17.375V16Z" fill="white"/>
<path d="M27.7482 16H30.9256V21H27.7482V16Z" fill="white"/>
<path d="M38.1232 16H41.3007V21H38.1232V16Z" fill="white"/>
<path d="M0.828125 0.160156H4.00813V21H0.828125V0.160156Z" fill="white"/>
<path d="M47.2246 0.160156H50.4046V21H47.2246V0.160156Z" fill="white"/>
<path d="M0.828125 23.5594H2.07293L3.38766 26.767H3.44361L4.75834 23.5594H6.00314V28.3335H5.02409V25.2261H4.98446L3.74898 28.3102H3.08229L1.84681 25.2145H1.80718V28.3335H0.828125V23.5594Z" fill="white"/>
<path d="M7.22862 28.3335V23.5594H10.4455V24.3916H8.23798V25.5292H10.28V26.3614H8.23798V27.5013H10.4548V28.3335H7.22862Z" fill="white"/>
<path d="M11.46 24.3916V23.5594H15.3809V24.3916H13.9193V28.3335H12.9216V24.3916H11.46Z" fill="white"/>
<path d="M16.4205 28.3335V23.5594H18.304C18.6661 23.5594 18.9746 23.6286 19.2295 23.7669C19.4843 23.9036 19.6786 24.094 19.8122 24.338C19.9474 24.5804 20.015 24.8602 20.015 25.1772C20.015 25.4942 19.9467 25.7739 19.8099 26.0164C19.6731 26.2588 19.475 26.4476 19.2155 26.5828C18.9575 26.718 18.6451 26.7856 18.2784 26.7856H17.0779V25.9767H18.1152C18.3095 25.9767 18.4695 25.9433 18.5954 25.8765C18.7228 25.8081 18.8176 25.7141 18.8798 25.5945C18.9435 25.4732 18.9754 25.3341 18.9754 25.1772C18.9754 25.0187 18.9435 24.8804 18.8798 24.7623C18.8176 24.6426 18.7228 24.5501 18.5954 24.4849C18.468 24.418 18.3063 24.3846 18.1105 24.3846H17.4299V28.3335H16.4205Z" fill="white"/>
<path d="M25.4516 25.9464C25.4516 26.4671 25.3529 26.91 25.1556 27.2752C24.9598 27.6404 24.6925 27.9193 24.3537 28.112C24.0165 28.3032 23.6373 28.3988 23.2161 28.3988C22.7919 28.3988 22.4111 28.3024 22.0739 28.1097C21.7366 27.917 21.4701 27.638 21.2743 27.2728C21.0785 26.9076 20.9806 26.4655 20.9806 25.9464C20.9806 25.4258 21.0785 24.9829 21.2743 24.6177C21.4701 24.2525 21.7366 23.9743 22.0739 23.7832C22.4111 23.5905 22.7919 23.4941 23.2161 23.4941C23.6373 23.4941 24.0165 23.5905 24.3537 23.7832C24.6925 23.9743 24.9598 24.2525 25.1556 24.6177C25.3529 24.9829 25.4516 25.4258 25.4516 25.9464ZM24.4283 25.9464C24.4283 25.6092 24.3778 25.3248 24.2768 25.0933C24.1773 24.8617 24.0367 24.6861 23.8548 24.5664C23.673 24.4468 23.4601 24.3869 23.2161 24.3869C22.9721 24.3869 22.7592 24.4468 22.5774 24.5664C22.3956 24.6861 22.2541 24.8617 22.1531 25.0933C22.0537 25.3248 22.0039 25.6092 22.0039 25.9464C22.0039 26.2837 22.0537 26.5681 22.1531 26.7996C22.2541 27.0312 22.3956 27.2068 22.5774 27.3265C22.7592 27.4461 22.9721 27.5059 23.2161 27.5059C23.4601 27.5059 23.673 27.4461 23.8548 27.3265C24.0367 27.2068 24.1773 27.0312 24.2768 26.7996C24.3778 26.5681 24.4283 26.2837 24.4283 25.9464Z" fill="white"/>
<path d="M26.3344 28.3335V27.5223L26.4696 27.5106C26.6437 27.4966 26.7843 27.4306 26.8916 27.3125C26.9988 27.1928 27.0788 27.0024 27.1317 26.7413C27.1861 26.4787 27.221 26.1259 27.2366 25.683L27.3158 23.5594H30.556V28.3335H29.5746V24.3683H28.2529L28.1783 26.0304C28.1535 26.565 28.0897 27.0017 27.9872 27.3404C27.8862 27.6792 27.7245 27.9294 27.5023 28.091C27.2816 28.2527 26.9794 28.3335 26.5955 28.3335H26.3344Z" fill="white"/>
<path d="M36.1692 25.9464C36.1692 26.4671 36.0705 26.91 35.8732 27.2752C35.6773 27.6404 35.41 27.9193 35.0713 28.112C34.734 28.3032 34.3548 28.3988 33.9337 28.3988C33.5094 28.3988 33.1287 28.3024 32.7915 28.1097C32.4542 27.917 32.1877 27.638 31.9919 27.2728C31.7961 26.9076 31.6982 26.4655 31.6982 25.9464C31.6982 25.4258 31.7961 24.9829 31.9919 24.6177C32.1877 24.2525 32.4542 23.9743 32.7915 23.7832C33.1287 23.5905 33.5094 23.4941 33.9337 23.4941C34.3548 23.4941 34.734 23.5905 35.0713 23.7832C35.41 23.9743 35.6773 24.2525 35.8732 24.6177C36.0705 24.9829 36.1692 25.4258 36.1692 25.9464ZM35.1459 25.9464C35.1459 25.6092 35.0953 25.3248 34.9943 25.0933C34.8949 24.8617 34.7542 24.6861 34.5724 24.5664C34.3906 24.4468 34.1777 24.3869 33.9337 24.3869C33.6897 24.3869 33.4768 24.4468 33.295 24.5664C33.1131 24.6861 32.9717 24.8617 32.8707 25.0933C32.7713 25.3248 32.7215 25.6092 32.7215 25.9464C32.7215 26.2837 32.7713 26.5681 32.8707 26.7996C32.9717 27.0312 33.1131 27.2068 33.295 27.3265C33.4768 27.4461 33.6897 27.5059 33.9337 27.5059C34.1777 27.5059 34.3906 27.4461 34.5724 27.3265C34.7542 27.2068 34.8949 27.0312 34.9943 26.7996C35.0953 26.5681 35.1459 26.2837 35.1459 25.9464Z" fill="white"/>
<path d="M40.4787 23.5594V24.3916H38.3201V28.3335H37.3108V23.5594H40.4787Z" fill="white"/>
<path d="M41.5189 23.5594H42.5259V26.5619H42.5655L44.6285 23.5594H45.512V28.3335H44.5027V25.3287H44.4677L42.393 28.3335H41.5189V23.5594Z" fill="white"/>
<path d="M50.4043 28.3335H49.3973V24.3846H48.7166C48.5223 24.3846 48.3607 24.4134 48.2317 24.4709C48.1043 24.5268 48.0087 24.6092 47.945 24.718C47.8813 24.8267 47.8494 24.9604 47.8494 25.1189C47.8494 25.2759 47.8813 25.4072 47.945 25.5129C48.0087 25.6185 48.1043 25.6978 48.2317 25.7506C48.3592 25.8035 48.5192 25.8299 48.7119 25.8299H49.8075V26.6411H48.5488C48.1835 26.6411 47.8712 26.5805 47.6117 26.4593C47.3521 26.3381 47.154 26.164 47.0172 25.9371C46.8805 25.7087 46.8121 25.4359 46.8121 25.1189C46.8121 24.8034 46.8789 24.5291 47.0126 24.296C47.1478 24.0614 47.3428 23.8803 47.5977 23.7529C47.8541 23.6239 48.1626 23.5594 48.5231 23.5594H50.4043V28.3335ZM47.8284 26.1609H48.9171L47.7562 28.3335H46.6419L47.8284 26.1609Z" fill="white"/>
</svg>
